<svg width="18" height="18" viewBox="0 0 18 18" fill="none" xmlns="http://www.w3.org/2000/svg">
<path fill-rule="evenodd" clip-rule="evenodd" d="M9.36905 3.40163L1.73934 11.0313L0.698691 14.9127L0.0141898 17.4697C-0.0048228 17.5411 -0.00472791 17.6163 0.014465 17.6877C0.0336579 17.7591 0.0712748 17.8242 0.123547 17.8765C0.175819 17.9287 0.24091 17.9663 0.312298 17.9855C0.383687 18.0047 0.458866 18.0048 0.530302 17.9858L3.08561 17.3005L6.96782 16.2598H6.96866L14.5984 8.63011L9.36989 3.40163H9.36905ZM17.7531 4.28567L13.7152 0.246859C13.637 0.168604 13.5443 0.106521 13.4421 0.0641621C13.34 0.0218032 13.2305 0 13.1199 0C13.0093 0 12.8998 0.0218032 12.7977 0.0641621C12.6956 0.106521 12.6028 0.168604 12.5247 0.246859L10.4408 2.32983L15.6702 7.55916L17.7531 5.47534C17.8314 5.39722 17.8935 5.30443 17.9358 5.20229C17.9782 5.10015 18 4.99066 18 4.88009C18 4.76951 17.9782 4.66002 17.9358 4.55788C17.8935 4.45574 17.8314 4.36295 17.7531 4.28483" fill="#121314"/>
</svg>
