<svg width="24" height="25" viewBox="0 0 24 25" fill="none" xmlns="http://www.w3.org/2000/svg">
<path fill-rule="evenodd" clip-rule="evenodd" d="M5.65234 2.80029C4.54777 2.80029 3.65234 3.69572 3.65234 4.80029V11.1592C3.65234 14.7789 6.3997 17.7569 9.9229 18.1217V19.7658H8.67065C7.14711 19.7658 5.91205 21.0009 5.91205 22.5244C5.91205 22.6768 6.03555 22.8003 6.18791 22.8003L17.5792 22.8003C17.8585 22.8003 18.0849 22.5739 18.0849 22.2945C18.0849 20.898 16.9528 19.7658 15.5562 19.7658H14.072V18.1223C17.5982 17.7604 20.3488 14.781 20.3488 11.1592V4.80029C20.3488 3.69572 19.4533 2.80029 18.3488 2.80029H5.65234Z" fill="#121314"/>
<path d="M11.4752 6.17027C11.7075 5.76616 12.2905 5.76616 12.5228 6.17026L13.5928 8.03153L15.6936 8.47396C16.1497 8.57002 16.3298 9.12451 16.0173 9.47032L14.5778 11.0631L14.8062 13.1978C14.8558 13.6613 14.3841 14.0039 13.9586 13.8136L11.999 12.9367L10.0393 13.8136C9.61388 14.0039 9.14221 13.6613 9.1918 13.1978L9.4202 11.0631L7.98067 9.47032C7.66813 9.12451 7.8483 8.57002 8.30441 8.47396L10.4052 8.03153L11.4752 6.17027Z" fill="white"/>
</svg>
