<svg width="24" height="25" viewBox="0 0 24 25" fill="none" xmlns="http://www.w3.org/2000/svg">
<path d="M9.9229 18.1217H10.8229V17.31L10.0156 17.2265L9.9229 18.1217ZM9.9229 19.7658V20.6658H10.8229V19.7658H9.9229ZM5.91205 22.5244H5.01205H5.91205ZM6.18791 22.8003V21.9003V22.8003ZM17.5792 22.8003V23.7003V22.8003ZM14.072 19.7658H13.172V20.6658H14.072V19.7658ZM14.072 18.1223L13.9801 17.227L13.172 17.31V18.1223H14.072ZM4.55234 4.80029C4.55234 4.19278 5.04483 3.70029 5.65234 3.70029V1.90029C4.05072 1.90029 2.75234 3.19867 2.75234 4.80029H4.55234ZM4.55234 11.1592V4.80029H2.75234V11.1592H4.55234ZM10.0156 17.2265C6.94634 16.9087 4.55234 14.3129 4.55234 11.1592H2.75234C2.75234 15.2448 5.85306 18.6051 9.83021 19.0169L10.0156 17.2265ZM10.8229 19.7658V18.1217H9.0229V19.7658H10.8229ZM8.67065 20.6658H9.9229V18.8658H8.67065V20.6658ZM6.81205 22.5244C6.81205 21.498 7.64417 20.6658 8.67065 20.6658V18.8658C6.65006 18.8658 5.01205 20.5038 5.01205 22.5244H6.81205ZM6.18791 21.9003C6.53261 21.9003 6.81205 22.1797 6.81205 22.5244H5.01205C5.01205 23.1738 5.5385 23.7003 6.18791 23.7003V21.9003ZM17.5792 21.9003L6.18791 21.9003L6.18791 23.7003L17.5792 23.7003L17.5792 21.9003ZM17.1849 22.2945C17.1849 22.0768 17.3614 21.9003 17.5792 21.9003V23.7003C18.3555 23.7003 18.9849 23.0709 18.9849 22.2945H17.1849ZM15.5562 20.6658C16.4557 20.6658 17.1849 21.395 17.1849 22.2945H18.9849C18.9849 20.4009 17.4498 18.8658 15.5562 18.8658V20.6658ZM14.072 20.6658H15.5562V18.8658H14.072V20.6658ZM13.172 18.1223V19.7658H14.972V18.1223H13.172ZM19.4488 11.1592C19.4488 14.3148 17.0519 16.9117 13.9801 17.227L14.1639 19.0176C18.1444 18.6091 21.2488 15.2472 21.2488 11.1592H19.4488ZM19.4488 4.80029V11.1592H21.2488V4.80029H19.4488ZM18.3488 3.70029C18.9563 3.70029 19.4488 4.19278 19.4488 4.80029H21.2488C21.2488 3.19867 19.9504 1.90029 18.3488 1.90029V3.70029ZM5.65234 3.70029H18.3488V1.90029H5.65234V3.70029Z" fill="#121314" fill-opacity="0.3"/>
<path d="M11.4752 6.17027C11.7075 5.76616 12.2905 5.76616 12.5228 6.17026L13.5928 8.03153L15.6936 8.47396C16.1497 8.57002 16.3298 9.12451 16.0173 9.47032L14.5778 11.0631L14.8062 13.1978C14.8558 13.6613 14.3841 14.0039 13.9586 13.8136L11.999 12.9367L10.0393 13.8136C9.61388 14.0039 9.14221 13.6613 9.1918 13.1978L9.4202 11.0631L7.98067 9.47032C7.66813 9.12451 7.8483 8.57002 8.30441 8.47396L10.4052 8.03153L11.4752 6.17027Z" fill="#121314" fill-opacity="0.3"/>
</svg>
