<svg width="24" height="25" viewBox="0 0 24 25" fill="none" xmlns="http://www.w3.org/2000/svg">
<path fill-rule="evenodd" clip-rule="evenodd" d="M20.6688 9.58568L12.7695 3.30426C12.6043 3.17255 12.3992 3.10083 12.1879 3.10083C11.9765 3.10083 11.7715 3.17255 11.6062 3.30426L3.70604 9.58568C3.48586 9.76082 3.30802 9.98337 3.18578 10.2368C3.06354 10.4902 3.00003 10.7679 3 11.0492V19.8565C3 20.4517 3.23646 21.0226 3.65736 21.4435C4.07826 21.8644 4.64912 22.1008 5.24437 22.1008H9.31757V17.657C9.31757 17.409 9.4161 17.1711 9.59147 16.9957C9.76685 16.8204 10.0047 16.7218 10.2527 16.7218H14.123C14.371 16.7218 14.6089 16.8204 14.7843 16.9957C14.9597 17.1711 15.0582 17.409 15.0582 17.657V22.1008H19.1305C19.7257 22.1008 20.2966 21.8644 20.7175 21.4435C21.1384 21.0226 21.3748 20.4517 21.3748 19.8565V11.0501C21.3748 10.7688 21.3113 10.4911 21.189 10.2377C21.0668 9.9843 20.889 9.76082 20.6688 9.58568Z" fill="#121314" stroke="#121314" stroke-width="1.8"/>
</svg>
