<svg width="24" height="25" viewBox="0 0 24 25" fill="none" xmlns="http://www.w3.org/2000/svg">
<g clip-path="url(#clip0_2483_66573)">
<g clip-path="url(#clip1_2483_66573)">
<circle cx="12" cy="12.8" r="11.3" stroke="#121314" stroke-opacity="0.3" stroke-width="1.4"/>
<path fill-rule="evenodd" clip-rule="evenodd" d="M15.3512 9.04939C15.3513 9.47614 15.2673 9.89872 15.104 10.293C14.9407 10.6873 14.7014 11.0456 14.3997 11.3473C14.0979 11.6491 13.7397 11.8885 13.3455 12.0519C12.9512 12.2152 12.5286 12.2993 12.1019 12.2994C11.24 12.2995 10.4134 11.9572 9.80393 11.3478C9.19444 10.7384 8.85198 9.91191 8.85189 9.05005C8.85185 8.6233 8.93586 8.20071 9.09913 7.80643C9.2624 7.41214 9.50174 7.05388 9.80346 6.75209C10.4128 6.1426 11.2394 5.80014 12.1012 5.80005C12.9631 5.79996 13.7897 6.14225 14.3992 6.75162C15.0087 7.36099 15.3511 8.18752 15.3512 9.04939ZM12.1016 13.2935C7.42191 13.2935 5.60156 16.2717 5.60156 17.6572C5.60156 19.042 9.4766 19.4111 12.1016 19.4111C14.7265 19.4111 18.6016 19.042 18.6016 17.6572C18.6016 16.2717 16.7812 13.2935 12.1016 13.2935Z" fill="#121314" fill-opacity="0.3"/>
</g>
</g>
<defs>
<clipPath id="clip0_2483_66573">
<rect width="24" height="24" fill="white" transform="translate(0 0.800293)"/>
</clipPath>
<clipPath id="clip1_2483_66573">
<rect width="24" height="24" fill="white" transform="translate(0 0.800293)"/>
</clipPath>
</defs>
</svg>
