<svg width="24" height="25" viewBox="0 0 24 25" fill="none" xmlns="http://www.w3.org/2000/svg">
<g clip-path="url(#clip0_2939_49560)">
<circle cx="12" cy="12.8003" r="9" fill="#121314" fill-opacity="0.8"/>
<path fill-rule="evenodd" clip-rule="evenodd" d="M10.5879 7H11.5879V8.75406H12.126C12.3468 8.75406 12.5566 8.76245 12.7554 8.77923V7H13.7554V8.96166C14.055 9.05339 14.3145 9.17552 14.534 9.32806C15.094 9.70139 15.374 10.2427 15.374 10.9521C15.374 11.3441 15.276 11.7034 15.08 12.0301C14.884 12.3474 14.6087 12.5947 14.254 12.7721C14.6647 12.9027 14.996 13.1407 15.248 13.4861C15.5 13.8221 15.626 14.2421 15.626 14.7461C15.626 15.4274 15.3927 15.9734 14.926 16.3841C14.6333 16.6469 14.2431 16.8256 13.7554 16.9202V18.5H12.7554V17.0001H11.5879V18.5H10.5879V17.0001H8.5V15.7541H9.732V10.0001H8.5V8.75406H10.5879V7ZM11.16 15.7541H12.672C13.1387 15.7541 13.498 15.6561 13.75 15.4601C14.002 15.2547 14.128 14.9514 14.128 14.5501C14.128 14.1767 14.0067 13.8921 13.764 13.6961C13.5307 13.5001 13.1947 13.4021 12.756 13.4021H11.174L11.16 15.7541ZM11.174 12.2961H12.77C13.1247 12.2961 13.3953 12.1934 13.582 11.9881C13.7687 11.7827 13.862 11.5027 13.862 11.1481C13.862 10.3827 13.3347 10.0001 12.28 10.0001H11.174V12.2961Z" fill="white"/>
</g>
<defs>
<clipPath id="clip0_2939_49560">
<rect width="24" height="24" fill="white" transform="translate(0 0.800293)"/>
</clipPath>
</defs>
</svg>
