<svg width="24" height="25" viewBox="0 0 24 25" fill="none" xmlns="http://www.w3.org/2000/svg">
<g clip-path="url(#clip0_2939_49579)">
<g clip-path="url(#clip1_2939_49579)">
<path d="M7.37634 15.6022L2.86022 13.6667C2.32258 13.4516 2 13.1291 2 12.5914C2 12.0538 2.32258 11.7312 2.86022 11.5162L7.37634 9.58067C7.5914 9.47314 7.80645 9.47314 8.02151 9.47314C8.45161 9.47314 8.77419 9.79573 8.77419 10.2258C8.77419 10.6559 8.55914 10.871 8.12903 11.086L4.15054 12.4839V12.5914L8.23656 14.0968C8.55914 14.2043 8.77419 14.5269 8.77419 14.957C8.77419 15.3871 8.45161 15.7097 8.02151 15.7097C7.80645 15.7097 7.5914 15.7097 7.37634 15.6022Z" fill="#121314" fill-opacity="0.8"/>
<path d="M9.74219 17.6452C9.74219 17.5376 9.74219 17.4301 9.74219 17.3226L12.5379 7.75269C12.6454 7.21505 12.968 7 13.3981 7C13.9357 7 14.2583 7.32258 14.2583 7.75269C14.2583 7.86022 14.2583 7.96774 14.2583 8.07527L11.4626 17.7527C11.3551 18.1828 11.0325 18.3979 10.6024 18.3979C10.0648 18.3979 9.74219 18.0753 9.74219 17.6452Z" fill="#121314" fill-opacity="0.8"/>
<path d="M15.1172 14.957C15.1172 14.5269 15.3322 14.2043 15.7623 14.0968L19.8484 12.5914L15.7623 11.086C15.3322 10.9785 15.1172 10.6559 15.1172 10.2258C15.1172 9.79573 15.4398 9.47314 15.8699 9.47314C16.0849 9.47314 16.3 9.47314 16.515 9.58067L21.0312 11.4086C21.6763 11.6237 21.8914 12.0538 21.8914 12.4839C21.8914 12.914 21.6763 13.4516 21.0312 13.6667L16.515 15.6022C16.3 15.7097 16.0849 15.7097 15.8699 15.7097C15.4398 15.7097 15.1172 15.3871 15.1172 14.957Z" fill="#121314" fill-opacity="0.8"/>
</g>
</g>
<defs>
<clipPath id="clip0_2939_49579">
<rect width="24" height="24" fill="white" transform="translate(0 0.800293)"/>
</clipPath>
<clipPath id="clip1_2939_49579">
<rect width="20" height="11.3979" fill="white" transform="translate(2 7)"/>
</clipPath>
</defs>
</svg>
