<svg width="24" height="25" viewBox="0 0 24 25" fill="none" xmlns="http://www.w3.org/2000/svg">
<g clip-path="url(#clip0_2953_47313)">
<g clip-path="url(#clip1_2953_47313)">
<path d="M19.8511 4H12.7021H11.4255H4.2766C3.51064 4 3 4.51064 3 5.2766V13.5745V14.9787V21.1064C3 21.617 3.38298 22 3.89362 22H8.23404C9 22 9.51064 21.4894 9.51064 20.7234C9.51064 18.8085 7.59574 16 5.55319 14.4681C8.61702 13.4468 11.0426 10.6383 12.0638 7.57447C13.2128 10.766 15.6383 13.5745 18.5745 14.5957C16.4043 16 14.617 18.9362 14.617 20.8511C14.617 21.617 15.1277 22.1277 15.8936 22.1277H20.234C20.7447 22.1277 21.1277 21.7447 21.1277 21.234V14.9787V13.5745V5.2766C21.1277 4.51064 20.617 4 19.8511 4Z" fill="#121314" fill-opacity="0.8"/>
</g>
</g>
<defs>
<clipPath id="clip0_2953_47313">
<rect width="24" height="24" fill="white" transform="translate(0 0.800293)"/>
</clipPath>
<clipPath id="clip1_2953_47313">
<rect width="18.1277" height="18" fill="white" transform="translate(3 4)"/>
</clipPath>
</defs>
</svg>
