<svg width="24" height="25" viewBox="0 0 24 25" fill="none" xmlns="http://www.w3.org/2000/svg">
<path d="M19.3 8.3C20 8.3 20.6 7.7 20.6 7V5.3C20.6 4.6 20 4 19.3 4H17.6C16.9 4 16.3 4.6 16.3 5.3V5.5H7.3V5.3C7.3 4.6 6.7 4 6 4H4.3C3.6 4 3 4.6 3 5.3V7C3 7.7 3.6 8.3 4.3 8.3H4.4V17.3H4.3C3.6 17.3 3 17.9 3 18.6V20.3C3 21 3.6 21.6 4.3 21.6H6C6.7 21.6 7.3 21 7.3 20.3V20.2H16.3V20.3C16.3 21 16.9 21.6 17.6 21.6H19.3C20 21.6 20.6 21 20.6 20.3V18.6C20.6 17.9 20 17.3 19.3 17.3H19.2L19.3 8.3ZM17.7 17.3C16.9 17.3 16.3 17.9 16.3 18.6V18.7H7.3V18.6C7.3 17.9 6.7 17.3 6 17.3H5.9V8.3H6C6.7 8.3 7.3 7.7 7.3 7H16.3C16.3 7.7 16.9 8.3 17.6 8.3H17.7V17.3Z" fill="#121314" fill-opacity="0.8"/>
</svg>
