<svg width="24" height="25" viewBox="0 0 24 25" fill="none" xmlns="http://www.w3.org/2000/svg">
<g clip-path="url(#clip0_626_14201)">
<path fill-rule="evenodd" clip-rule="evenodd" d="M19 6.10845V4.3695C18.9994 4.29385 18.9786 4.21973 18.9397 4.15484C18.9008 4.08995 18.8452 4.03665 18.7788 4.00047C18.7123 3.96429 18.6374 3.94656 18.5618 3.9491C18.4861 3.95165 18.4126 3.97438 18.3487 4.01494C14.8799 6.18201 13.9873 11.3641 13.7642 13.4626C13.7523 13.5774 13.7648 13.6935 13.8007 13.8032C13.8367 13.9129 13.8953 14.0138 13.9727 14.0994C14.0502 14.185 14.1448 14.2533 14.2504 14.2999C14.356 14.3466 14.4703 14.3705 14.5857 14.3701L16.718 14.3734L16.4883 21.0399C16.4822 21.2086 16.5101 21.3768 16.5704 21.5345C16.6308 21.6921 16.7223 21.836 16.8394 21.9575C16.9566 22.079 17.0971 22.1757 17.2525 22.2417C17.4078 22.3077 17.5749 22.3417 17.7437 22.3417C17.9125 22.3417 18.0796 22.3077 18.235 22.2417C18.3904 22.1757 18.5308 22.079 18.648 21.9575C18.7652 21.836 18.8567 21.6921 18.917 21.5345C18.9774 21.3768 19.0053 21.2086 18.9992 21.0399V6.10845H19ZM12.1012 3.80005C11.882 3.80005 11.6718 3.88713 11.5168 4.04212C11.3618 4.19712 11.2747 4.40734 11.2747 4.62654V8.06724C11.2747 8.11849 11.264 8.16642 11.2624 8.21684H9.79036V4.62654C9.79036 4.40734 9.70329 4.19712 9.54829 4.04212C9.39329 3.88713 9.18307 3.80005 8.96387 3.80005C8.74467 3.80005 8.53445 3.88713 8.37945 4.04212C8.22445 4.19712 8.13737 4.40734 8.13737 4.62654V8.21684H6.66539C6.66373 8.16642 6.65299 8.11849 6.65299 8.06724V4.62654C6.65299 4.40734 6.56591 4.19712 6.41092 4.04212C6.25592 3.88713 6.0457 3.80005 5.82649 3.80005C5.60729 3.80005 5.39707 3.88713 5.24207 4.04212C5.08708 4.19712 5 4.40734 5 4.62654V8.06724C5 10.1922 6.30338 11.9741 8.04894 12.4452L7.70842 21.0416C7.70412 21.2092 7.73343 21.376 7.79461 21.5321C7.85579 21.6882 7.9476 21.8306 8.06465 21.9506C8.18169 22.0707 8.32159 22.1662 8.4761 22.2313C8.6306 22.2965 8.7966 22.3301 8.96428 22.3301C9.13197 22.3301 9.29796 22.2965 9.45247 22.2313C9.60698 22.1662 9.74688 22.0707 9.86392 21.9506C9.98096 21.8306 10.0728 21.6882 10.134 21.5321C10.1951 21.376 10.2244 21.2092 10.2201 21.0416L9.87963 12.4452C11.6244 11.9741 12.9277 10.1922 12.9277 8.06724V4.62654C12.9277 4.40734 12.8407 4.19712 12.6857 4.04212C12.5307 3.88713 12.3204 3.80005 12.1012 3.80005Z" fill="#121314" fill-opacity="0.8"/>
</g>
<defs>
<clipPath id="clip0_626_14201">
<rect width="24" height="24" fill="white" transform="translate(0 0.800293)"/>
</clipPath>
</defs>
</svg>
