<svg width="24" height="25" viewBox="0 0 24 25" fill="none" xmlns="http://www.w3.org/2000/svg">
<g clip-path="url(#clip0_3056_48635)">
<path d="M20.0227 5H4.37569C3.44432 5 2.69922 5.7451 2.69922 6.67647V18.3186C2.69922 19.25 3.44432 19.9951 4.37569 19.9951H20.1159C21.0473 19.9951 21.7924 19.25 21.7924 18.3186V6.67647C21.6992 5.7451 20.9541 5 20.0227 5ZM4.37569 6.39706H20.1159C20.209 6.39706 20.3022 6.4902 20.3022 6.58333V15.0588L9.12569 11.1471C8.28745 10.9608 7.35608 11.1471 6.79726 11.799L4.09628 14.5V6.67647C4.09628 6.4902 4.18941 6.39706 4.37569 6.39706Z" fill="#333333"/>
<path d="M16.1305 12.3579C17.1798 12.3579 18.0305 11.5072 18.0305 10.4579C18.0305 9.40852 17.1798 8.55786 16.1305 8.55786C15.0811 8.55786 14.2305 9.40852 14.2305 10.4579C14.2305 11.5072 15.0811 12.3579 16.1305 12.3579Z" fill="#333333"/>
</g>
<defs>
<clipPath id="clip0_3056_48635">
<rect width="19" height="14.902" fill="white" transform="translate(2.69922 5)"/>
</clipPath>
</defs>
</svg>
