<svg width="24" height="25" viewBox="0 0 24 25" fill="none" xmlns="http://www.w3.org/2000/svg">
<g clip-path="url(#clip0_2950_47874)">
<path d="M10.2784 10.4708H6.1875V6.90053C6.1875 6.60301 6.41064 6.45425 6.5594 6.23111C7.3032 5.56169 9.16271 4.07409 9.16271 4.07409C9.68337 3.85095 10.2784 4.14847 10.2784 4.74351V10.4708Z" fill="#121314" fill-opacity="0.8"/>
<path d="M18.6846 19.3965H12.8086V13.3717C12.8086 11.7353 14.1474 10.3965 15.7838 10.3965C17.4202 10.3965 18.759 11.7353 18.759 13.3717V19.3965H18.6846Z" fill="#121314" fill-opacity="0.8"/>
<path fill-rule="evenodd" clip-rule="evenodd" d="M5.59375 14.0203V12.256C5.59375 11.8097 5.89127 11.5122 6.33755 11.5122H10.2053C10.6516 11.5122 10.9491 11.8097 10.9491 12.256V14.0784C11.0912 14.2092 11.1729 14.4022 11.1729 14.6361V21.256C11.1729 21.6279 10.8754 21.9998 10.4291 21.9998H6.04068C5.5944 21.9998 5.29688 21.7023 5.29688 21.256V14.6361C5.29688 14.3646 5.407 14.1482 5.59375 14.0203Z" fill="#121314" fill-opacity="0.8"/>
<path d="M12.8086 20.3633H18.6846V21.2558C18.6846 21.7021 18.3871 21.9996 17.9408 21.9996H13.5524C13.1061 21.9996 12.8086 21.7021 12.8086 21.2558V20.3633Z" fill="#121314" fill-opacity="0.8"/>
</g>
<defs>
<clipPath id="clip0_2950_47874">
<rect width="24" height="24" fill="white" transform="translate(0 0.800293)"/>
</clipPath>
</defs>
</svg>
