<svg width="24" height="25" viewBox="0 0 24 25" fill="none" xmlns="http://www.w3.org/2000/svg">
<g clip-path="url(#clip0_2939_47169)">
<path fill-rule="evenodd" clip-rule="evenodd" d="M18.8664 6.80055H16.3663L15.4243 4.96483C15.2749 4.67422 15.0483 4.43042 14.7694 4.2602C14.4905 4.08999 14.1701 3.99996 13.8433 4H10.1084C9.77525 3.99996 9.44877 4.09357 9.16624 4.27016C8.8837 4.44674 8.65649 4.69918 8.51053 4.99868L7.63372 6.80055H5.13363C4.85348 6.80043 4.57605 6.85552 4.31719 6.96265C4.05833 7.06978 3.82311 7.22687 3.62498 7.42492C3.42684 7.62298 3.26966 7.85813 3.16243 8.11695C3.05519 8.37577 3 8.65317 3 8.93333V18.7517C3 19.0319 3.05519 19.3093 3.16243 19.5681C3.26966 19.8269 3.42684 20.0621 3.62498 20.2601C3.82311 20.4582 4.05833 20.6153 4.31719 20.7224C4.57605 20.8295 4.85348 20.8846 5.13363 20.8845H18.8664C19.1465 20.8846 19.424 20.8295 19.6828 20.7224C19.9417 20.6153 20.1769 20.4582 20.375 20.2601C20.5732 20.0621 20.7303 19.8269 20.8376 19.5681C20.9448 19.3093 21 19.0319 21 18.7517V8.93333C21 8.65317 20.9448 8.37577 20.8376 8.11695C20.7303 7.85813 20.5732 7.62298 20.375 7.42492C20.1769 7.22687 19.9417 7.06978 19.6828 6.96265C19.424 6.85552 19.1465 6.80043 18.8664 6.80055Z" fill="#121314" fill-opacity="0.8"/>
<circle cx="11.9979" cy="13.5238" r="3.2831" stroke="white" stroke-width="1.3"/>
</g>
<defs>
<clipPath id="clip0_2939_47169">
<rect width="24" height="24" fill="white" transform="translate(0 0.800293)"/>
</clipPath>
</defs>
</svg>
