<svg width="24" height="25" viewBox="0 0 24 25" fill="none" xmlns="http://www.w3.org/2000/svg">
<g clip-path="url(#clip0_636_13680)">
<g clip-path="url(#clip1_636_13680)">
<path d="M6.37891 22.1077C6.37891 23.0478 7.16764 23.8 8.15355 23.8C9.13947 23.8 9.9282 23.0478 9.9282 22.2017H6.97046C6.77327 22.2017 6.57609 22.2017 6.37891 22.1077Z" fill="#121314" fill-opacity="0.8"/>
<path d="M17.0271 22.2017H14.168C14.168 23.1419 14.9567 23.8 15.9426 23.8C16.9285 23.8 17.7173 23.0478 17.7173 22.1077C17.4215 22.2017 17.2243 22.2017 17.0271 22.2017Z" fill="#121314" fill-opacity="0.8"/>
<path d="M17.0282 6.59492H15.5493V5.9368V5.27868V3.49236H16.0423C16.5352 3.49236 16.9296 3.11629 16.9296 2.6462C16.9296 2.17612 16.5352 1.80005 16.0423 1.80005H7.95775C7.46479 1.80005 7.07042 2.17612 7.07042 2.6462V2.74022C7.07042 3.21031 7.46479 3.58637 7.95775 3.58637H8.4507V5.3727V6.03082V6.68894H6.97183C5.88732 6.68894 5 7.53509 5 8.56928V19.0992C5 20.1334 5.88732 20.9795 6.97183 20.9795H9.23944H14.662H16.9296C18.0141 20.9795 18.9014 20.1334 18.9014 19.0992V8.47526C19 7.44107 18.1127 6.59492 17.0282 6.59492ZM9.83099 17.783C9.83099 18.159 9.53521 18.4411 9.14085 18.4411C8.74648 18.4411 8.4507 18.159 8.4507 17.783V12.1419C8.4507 11.7659 8.74648 11.4838 9.14085 11.4838H9.23944C9.6338 11.4838 9.92958 11.7659 9.92958 12.1419V17.783H9.83099ZM9.83099 5.9368V5.27868V3.49236H14.169V5.27868V5.9368V6.59492H9.83099V5.9368ZM12.6901 17.783C12.6901 18.159 12.3944 18.4411 12 18.4411C11.6056 18.4411 11.3099 18.159 11.3099 17.783V12.1419C11.3099 11.7659 11.6056 11.4838 12 11.4838H12.0986C12.493 11.4838 12.7887 11.7659 12.7887 12.1419V17.783H12.6901ZM14.169 17.783V12.1419C14.169 11.7659 14.4648 11.4838 14.8592 11.4838C15.2535 11.4838 15.5493 11.7659 15.5493 12.1419V17.783C15.5493 18.159 15.2535 18.4411 14.8592 18.4411C14.4648 18.4411 14.169 18.159 14.169 17.783Z" fill="#121314" fill-opacity="0.8"/>
</g>
</g>
<defs>
<clipPath id="clip0_636_13680">
<rect width="24" height="24" fill="white" transform="translate(0 0.800293)"/>
</clipPath>
<clipPath id="clip1_636_13680">
<rect width="14" height="22" fill="white" transform="translate(5 1.80005)"/>
</clipPath>
</defs>
</svg>
