<svg width="24" height="25" viewBox="0 0 24 25" fill="none" xmlns="http://www.w3.org/2000/svg">
<g clip-path="url(#clip0_626_14108)">
<path d="M20.1388 4.76299C20.1388 4.09186 19.4497 3.5166 18.5637 3.5166L5.86419 3.5166C4.97818 3.5166 4.28906 4.09186 4.28906 4.76299L4.28906 20.8702C4.28906 21.5413 4.97818 22.1166 5.86419 22.1166H18.5637C19.4497 22.1166 20.1388 21.5413 20.1388 20.8702V4.76299ZM17.5792 5.33825C17.5792 5.24237 17.6777 5.24237 17.6777 5.24237H18.6621C18.7606 5.24237 18.7606 5.33825 18.7606 5.33825V6.10526C18.7606 6.20114 18.6621 6.20114 18.6621 6.20114H17.6777C17.5792 6.20114 17.5792 6.10526 17.5792 6.10526V5.33825ZM17.5792 7.25578C17.5792 7.1599 17.6777 7.1599 17.6777 7.1599H18.6621C18.7606 7.1599 18.7606 7.25578 18.7606 7.25578V8.02279C18.7606 8.11866 18.6621 8.11866 18.6621 8.11866H17.6777C17.5792 8.11866 17.5792 8.02279 17.5792 8.02279V7.25578ZM17.5792 9.07743C17.5792 8.98155 17.6777 8.98155 17.6777 8.98155H18.6621C18.7606 8.98155 18.7606 9.07743 18.7606 9.07743V9.84444C18.7606 9.94031 18.6621 9.94031 18.6621 9.94031H17.6777C17.5792 9.94031 17.5792 9.84444 17.5792 9.84444V9.07743ZM17.5792 10.8991C17.5792 10.8032 17.6777 10.8032 17.6777 10.8032H18.6621C18.7606 10.8032 18.7606 10.8991 18.7606 10.8991V11.6661C18.7606 11.762 18.6621 11.762 18.6621 11.762H17.6777C17.5792 11.762 17.5792 11.6661 17.5792 11.6661V10.8991ZM8.12844 6.00939C8.12844 5.62588 8.52222 5.24237 9.1129 5.24237L15.4134 5.24237C16.0041 5.24237 16.3979 5.62588 16.3979 6.00939V10.995C16.3979 11.3785 16.0041 11.762 15.4134 11.762H9.1129C8.52222 11.762 8.12844 11.3785 8.12844 10.995V6.00939ZM5.6673 5.33825C5.6673 5.24237 5.76575 5.24237 5.76575 5.24237H6.7502C6.84865 5.24237 6.84865 5.33825 6.84865 5.33825V6.10526C6.84865 6.20114 6.7502 6.20114 6.7502 6.20114H5.76575C5.6673 6.20114 5.6673 6.10526 5.6673 6.10526V5.33825ZM5.6673 7.25578C5.6673 7.1599 5.76575 7.1599 5.76575 7.1599H6.7502C6.84865 7.1599 6.84865 7.25578 6.84865 7.25578V8.02279C6.84865 8.11866 6.7502 8.11866 6.7502 8.11866H5.76575C5.6673 8.11866 5.6673 8.02279 5.6673 8.02279V7.25578ZM5.6673 9.07743C5.6673 8.98155 5.76575 8.98155 5.76575 8.98155H6.7502C6.84865 8.98155 6.84865 9.07743 6.84865 9.07743V9.84444C6.84865 9.94031 6.7502 9.94031 6.7502 9.94031H5.76575C5.6673 9.94031 5.6673 9.84444 5.6673 9.84444V9.07743ZM5.6673 10.8991C5.6673 10.8032 5.76575 10.8032 5.76575 10.8032H6.7502C6.84865 10.8032 6.84865 10.8991 6.84865 10.8991V11.6661C6.84865 11.762 6.7502 11.762 6.7502 11.762H5.76575C5.6673 11.762 5.6673 11.6661 5.6673 11.6661V10.8991ZM6.84865 20.1032C6.84865 20.1991 6.7502 20.1991 6.7502 20.1991H5.76575C5.6673 20.1991 5.6673 20.1032 5.6673 20.1032V19.3362C5.6673 19.2403 5.76575 19.2403 5.76575 19.2403H6.7502C6.84865 19.2403 6.84865 19.3362 6.84865 19.3362V20.1032ZM6.84865 18.2816C6.84865 18.3774 6.7502 18.3774 6.7502 18.3774H5.76575C5.6673 18.3774 5.6673 18.2816 5.6673 18.2816V17.5145C5.6673 17.4187 5.76575 17.4187 5.76575 17.4187H6.7502C6.84865 17.4187 6.84865 17.5145 6.84865 17.5145V18.2816ZM6.84865 16.364C6.84865 16.4599 6.7502 16.4599 6.7502 16.4599H5.76575C5.6673 16.4599 5.6673 16.364 5.6673 16.364V15.597C5.6673 15.5011 5.76575 15.5011 5.76575 15.5011H6.7502C6.84865 15.5011 6.84865 15.597 6.84865 15.597V16.364ZM6.84865 14.5424C6.84865 14.6383 6.7502 14.6383 6.7502 14.6383H5.76575C5.6673 14.6383 5.6673 14.5424 5.6673 14.5424V13.7754C5.6673 13.6795 5.76575 13.6795 5.76575 13.6795H6.7502C6.84865 13.6795 6.84865 13.7754 6.84865 13.7754V14.5424ZM16.3979 19.4321C16.3979 19.8156 16.0041 20.1991 15.4134 20.1991H9.1129C8.52222 20.1991 8.12844 19.8156 8.12844 19.4321V14.4465C8.12844 14.063 8.52222 13.6795 9.1129 13.6795H15.4134C16.0041 13.6795 16.3979 14.063 16.3979 14.4465V19.4321ZM18.7606 20.1032C18.7606 20.1991 18.6621 20.1991 18.6621 20.1991H17.6777C17.5792 20.1991 17.5792 20.1032 17.5792 20.1032V19.3362C17.5792 19.2403 17.6777 19.2403 17.6777 19.2403H18.6621C18.7606 19.2403 18.7606 19.3362 18.7606 19.3362V20.1032ZM18.7606 18.2816C18.7606 18.3774 18.6621 18.3774 18.6621 18.3774H17.6777C17.5792 18.3774 17.5792 18.2816 17.5792 18.2816V17.5145C17.5792 17.4187 17.6777 17.4187 17.6777 17.4187H18.6621C18.7606 17.4187 18.7606 17.5145 18.7606 17.5145V18.2816ZM18.7606 16.364C18.7606 16.4599 18.6621 16.4599 18.6621 16.4599H17.6777C17.5792 16.4599 17.5792 16.364 17.5792 16.364V15.597C17.5792 15.5011 17.6777 15.5011 17.6777 15.5011H18.6621C18.7606 15.5011 18.7606 15.597 18.7606 15.597V16.364ZM18.7606 14.5424C18.7606 14.6383 18.6621 14.6383 18.6621 14.6383H17.6777C17.5792 14.6383 17.5792 14.5424 17.5792 14.5424V13.7754C17.5792 13.6795 17.6777 13.6795 17.6777 13.6795H18.6621C18.7606 13.6795 18.7606 13.7754 18.7606 13.7754V14.5424Z" fill="#121314" fill-opacity="0.8"/>
</g>
<defs>
<clipPath id="clip0_626_14108">
<rect width="24" height="24" fill="white" transform="translate(0 0.800293)"/>
</clipPath>
</defs>
</svg>
