<svg width="24" height="25" viewBox="0 0 24 25" fill="none" xmlns="http://www.w3.org/2000/svg">
<g clip-path="url(#clip0_2950_47850)">
<path d="M21.1308 10.4458C20.8409 8.73061 19.5651 7.33307 17.9994 7.01545C17.3036 6.8884 16.6077 6.95192 15.9698 7.14249C15.4479 5.99905 14.4041 5.10971 13.2443 4.85561C11.2727 4.53798 9.59101 5.6179 8.83716 7.33307C8.54721 7.20602 8.25726 7.07897 7.96732 7.01545C5.18384 6.44372 2.7483 9.04823 3.2702 12.1609C3.56015 13.7491 4.66194 15.0831 6.11167 15.5277V20.165C6.11167 20.5462 6.34362 20.8003 6.69156 20.8003H17.4775C17.8255 20.8003 18.0574 20.5462 18.0574 20.165V15.5913C20.087 15.0831 21.5368 12.9232 21.1308 10.4458Z" fill="#121314" fill-opacity="0.8"/>
<path d="M12.0938 19.3346V16.5962" stroke="white" stroke-miterlimit="10" stroke-linecap="round"/>
<path d="M15.2617 19.3346V16.5962" stroke="white" stroke-miterlimit="10" stroke-linecap="round"/>
<path d="M8.95312 19.3346V16.5962" stroke="white" stroke-miterlimit="10" stroke-linecap="round"/>
</g>
<defs>
<clipPath id="clip0_2950_47850">
<rect width="24" height="24" fill="white" transform="translate(0 0.800293)"/>
</clipPath>
</defs>
</svg>
