<svg width="24" height="25" viewBox="0 0 24 25" fill="none" xmlns="http://www.w3.org/2000/svg">
<g clip-path="url(#clip0_624_14045)">
<path d="M19.1027 3.80591L8.90748 5.10204C8.41398 5.15916 8.01016 5.61208 8.01016 6.10909V15.5192C7.55424 15.3333 7.04571 15.2261 6.50711 15.2261C4.57069 15.2261 3 16.5713 3 18.2322C3 19.8925 4.57069 21.2383 6.50711 21.2383C8.44354 21.2383 10.0142 19.8925 10.0142 18.2322V8.98291L17.9959 7.9423V14.5176C17.54 14.3313 17.0315 14.224 16.4929 14.224C14.5565 14.224 12.9858 15.5693 12.9858 17.2301C12.9858 18.8905 14.5565 20.2362 16.4929 20.2362C18.4293 20.2362 20 18.8905 20 17.2301V4.60604C20 4.10903 19.5962 3.7493 19.1027 3.80591Z" fill="#121314" fill-opacity="0.8"/>
</g>
<defs>
<clipPath id="clip0_624_14045">
<rect width="24" height="24" fill="white" transform="translate(0 0.800293)"/>
</clipPath>
</defs>
</svg>
