<svg width="24" height="25" viewBox="0 0 24 25" fill="none" xmlns="http://www.w3.org/2000/svg">
<g clip-path="url(#clip0_3054_47947)">
<g clip-path="url(#clip1_3054_47947)">
<path d="M18.5978 10.4138C18.2162 9.23928 18.7786 8.05766 19.8913 7.69611L18.8345 4.44349C18.6583 3.90139 18.1985 3.65123 17.6849 3.8181L2.27783 8.82418C1.76426 8.99105 1.5393 9.4637 1.71544 10.0058L2.77228 13.2584C3.88502 12.8969 5.03453 13.5223 5.41617 14.6968C5.79781 15.8714 5.23542 17.053 4.12268 17.4145L5.17952 20.6671C5.35566 21.2092 5.81547 21.4594 6.32904 21.2925L21.7362 16.2865C22.2497 16.1196 22.4747 15.6469 22.2985 15.1048L21.2417 11.8522C20.129 12.2138 18.9795 11.5884 18.5978 10.4138Z" fill="#121314" fill-opacity="0.8"/>
<path d="M13.3203 5.23657L17.3715 17.7049" stroke="white" stroke-miterlimit="10" stroke-linejoin="round"/>
</g>
</g>
<defs>
<clipPath id="clip0_3054_47947">
<rect width="24" height="24" fill="white" transform="translate(0 0.800293)"/>
</clipPath>
<clipPath id="clip1_3054_47947">
<rect width="18" height="13.11" fill="white" transform="translate(1.42188 9.10229) rotate(-18)"/>
</clipPath>
</defs>
</svg>
