<svg width="24" height="25" viewBox="0 0 24 25" fill="none" xmlns="http://www.w3.org/2000/svg">
<g clip-path="url(#clip0_624_14042)">
<path fill-rule="evenodd" clip-rule="evenodd" d="M8.0754 14.8119H9.61182V13.2755H8.0754V14.8119ZM8.0754 11.6102H9.61182V10.0738H8.0754V11.6102ZM8.0754 8.40931H9.61182V6.87289H8.0754V8.40931ZM11.4905 14.8119H13.0269V13.2755H11.4905V14.8119ZM11.4905 11.6102H13.0269V10.0738H11.4905V11.6102ZM11.4905 8.40931H13.0269V6.87289H11.4905V8.40931ZM14.9065 14.8119H16.4429V13.2755H14.9065V14.8119ZM14.9065 11.6102H16.4429V10.0738H14.9065V11.6102ZM14.9065 8.40931H16.4429V6.87289H14.9065V8.40931ZM18.663 3.80005H5.85442C5.74226 3.79994 5.63117 3.82193 5.52751 3.86478C5.42385 3.90762 5.32966 3.97048 5.25031 4.04975C5.17095 4.12902 5.108 4.22316 5.06506 4.32677C5.02211 4.43039 5 4.54145 5 4.65362V20.7758C5 21.0474 5.10791 21.308 5.3 21.5C5.49209 21.6921 5.75262 21.8 6.02428 21.8H10.5516V18.5966C10.5516 18.3702 10.6415 18.1531 10.8016 17.9931C10.9617 17.833 11.1788 17.743 11.4052 17.743H13.1123C13.3387 17.743 13.5558 17.833 13.7159 17.9931C13.8759 18.1531 13.9659 18.3702 13.9659 18.5966V21.8H18.4923C18.764 21.8 19.0245 21.6921 19.2166 21.5C19.4087 21.308 19.5166 21.0474 19.5166 20.7758V4.65362C19.5166 4.42724 19.4267 4.21013 19.2666 4.05005C19.1065 3.88998 18.8894 3.80005 18.663 3.80005Z" fill="#121314" fill-opacity="0.8"/>
</g>
<defs>
<clipPath id="clip0_624_14042">
<rect width="24" height="24" fill="white" transform="translate(0 0.800293)"/>
</clipPath>
</defs>
</svg>
