<svg width="24" height="25" viewBox="0 0 24 25" fill="none" xmlns="http://www.w3.org/2000/svg">
<g clip-path="url(#clip0_639_13715)">
<g clip-path="url(#clip1_639_13715)">
<path fill-rule="evenodd" clip-rule="evenodd" d="M16.3449 12.0293C16.6313 12.2203 17.0132 12.2203 17.2997 12.0293C18.159 11.4565 20.164 10.0243 21.0233 8.49668C22.169 6.39618 20.9278 4.29567 19.2092 4.29567C18.2545 4.29567 17.5861 4.77306 17.2997 5.25045C17.2997 5.34592 17.2042 5.34592 17.1087 5.34592C17.0132 5.34592 17.0132 5.34592 16.9178 5.34592C16.8223 5.34592 16.8223 5.34592 16.7268 5.25045C16.6313 5.25045 16.6313 5.15497 16.5359 5.15497C16.2494 4.67758 15.6766 4.2002 14.6263 4.2002C13.0032 4.2002 11.6665 6.20522 12.7168 8.30572C13.5761 9.92884 15.4856 11.361 16.3449 12.0293Z" fill="#121314" fill-opacity="0.8"/>
<path fill-rule="evenodd" clip-rule="evenodd" d="M8.03922 21.1952C8.42113 21.4816 8.89851 21.4816 9.28042 21.1952C10.5216 20.4314 13.195 18.5218 14.4362 16.3258C15.9638 13.4615 14.2452 10.5972 11.8583 10.5972C10.5216 10.5972 9.66233 11.2655 9.28042 11.8384C9.18495 11.9339 9.08947 12.0293 8.99399 12.0293C8.89851 12.0293 8.80304 12.1248 8.70756 12.1248C8.61208 12.1248 8.5166 12.1248 8.42113 12.0293C8.42113 12.0293 8.32565 11.9339 8.32565 11.8384C7.84826 11.2655 7.08444 10.5972 5.74776 10.5017C3.36082 10.5017 1.54675 13.2706 3.07439 16.1349C4.12464 18.4263 6.79801 20.3359 8.03922 21.1952Z" fill="#121314" fill-opacity="0.8"/>
</g>
</g>
<defs>
<clipPath id="clip0_639_13715">
<rect width="24" height="24" fill="white" transform="translate(0 0.800293)"/>
</clipPath>
<clipPath id="clip1_639_13715">
<rect width="19" height="17.1859" fill="white" transform="translate(2.5 4.2002)"/>
</clipPath>
</defs>
</svg>
